<svg width="32" height="32" viewBox="0 0 32 32" fill="none" xmlns="http://www.w3.org/2000/svg">
<g id="DesktopTower">
<path id="Vector" d="M14 23H4C3.46957 23 2.96086 22.7893 2.58579 22.4142C2.21071 22.0391 2 21.5304 2 21V12C2 11.4696 2.21071 10.9609 2.58579 10.5858C2.96086 10.2107 3.46957 10 4 10H14" stroke="#59372B" stroke-width="2" stroke-linecap="round" stroke-linejoin="round"/>
<path id="Vector_2" d="M14 27H8" stroke="#59372B" stroke-width="2" stroke-linecap="round" stroke-linejoin="round"/>
<path id="Vector_3" d="M26 9H22" stroke="#59372B" stroke-width="2" stroke-linecap="round" stroke-linejoin="round"/>
<path id="Vector_4" d="M26 13H22" stroke="#59372B" stroke-width="2" stroke-linecap="round" stroke-linejoin="round"/>
<path id="Vector_5" d="M29 5H19C18.4477 5 18 5.44772 18 6V26C18 26.5523 18.4477 27 19 27H29C29.5523 27 30 26.5523 30 26V6C30 5.44772 29.5523 5 29 5Z" stroke="#59372B" stroke-width="2" stroke-linecap="round" stroke-linejoin="round"/>
<path id="Vector_6" d="M11 23V27" stroke="#59372B" stroke-width="2" stroke-linecap="round" stroke-linejoin="round"/>
<path id="Vector_7" d="M24.5 22.5C24.5 22.7761 24.2761 23 24 23C23.7239 23 23.5 22.7761 23.5 22.5C23.5 22.2239 23.7239 22 24 22C24.2761 22 24.5 22.2239 24.5 22.5Z" fill="#AE9E8F" stroke="#59372B" stroke-width="2"/>
</g>
</svg>
