<svg width="24" height="24" viewBox="0 0 24 24" fill="none" xmlns="http://www.w3.org/2000/svg">
<g id="feather 1">
<path id="Vector" d="M20.745 3.25784C19.6198 2.13319 18.0941 1.5014 16.5033 1.5014C14.9124 1.5014 13.3867 2.13319 12.2616 3.25784L5.68968 9.75003C5.54995 9.88894 5.43915 10.0542 5.36368 10.2362C5.28821 10.4182 5.24957 10.6133 5.24999 10.8103V17.6897L2.46936 20.4694C2.39968 20.5391 2.34441 20.6218 2.30669 20.7129C2.26898 20.8039 2.24957 20.9015 2.24957 21C2.24957 21.0986 2.26898 21.1962 2.30669 21.2872C2.34441 21.3782 2.39968 21.461 2.46936 21.5307C2.6101 21.6714 2.80097 21.7504 2.99999 21.7504C3.09854 21.7504 3.19612 21.731 3.28716 21.6933C3.37821 21.6556 3.46093 21.6003 3.53061 21.5307L6.31124 18.75H13.1906C13.3874 18.7503 13.5823 18.7117 13.7641 18.6364C13.9459 18.5611 14.1111 18.4506 14.25 18.3113L20.7403 11.7488C21.2986 11.1918 21.7416 10.5303 22.0441 9.80198C22.3465 9.07367 22.5024 8.29289 22.5028 7.50428C22.5033 6.71568 22.3482 5.93472 22.0466 5.20608C21.745 4.47744 21.3027 3.81541 20.745 3.25784ZM13.3191 4.31815C14.1476 3.48929 15.2667 3.01633 16.4386 2.99988C17.6104 2.98343 18.7424 3.42478 19.5938 4.23007C20.4453 5.03535 20.949 6.14103 20.9978 7.31195C21.0466 8.48288 20.6367 9.62665 19.8553 10.5H14.5622L17.7825 7.28065C17.9232 7.13992 18.0023 6.94905 18.0023 6.75003C18.0023 6.55101 17.9232 6.36013 17.7825 6.2194C17.6418 6.07867 17.4509 5.99961 17.2519 5.99961C17.0528 5.99961 16.862 6.07867 16.7212 6.2194L11.25 11.6897V6.36284L13.3191 4.31815ZM6.74999 10.8141L9.74999 7.84503V13.1888L6.74999 16.1888V10.8141ZM13.1906 17.25H7.81124L13.0612 12H18.3806L13.1906 17.25Z" fill="#59372B"/>
</g>
</svg>
