<svg width="32" height="32" viewBox="0 0 32 32" fill="none" xmlns="http://www.w3.org/2000/svg">
<g id="HeartStraight">
<path id="Vector" d="M16.7125 26.4875L26.8375 16.3625C29.325 13.8625 29.6875 9.77499 27.3375 7.16249C26.7481 6.50413 26.0307 5.97284 25.2291 5.60109C24.4275 5.22935 23.5585 5.02494 22.6752 5.00038C21.7919 4.97581 20.9129 5.13159 20.0919 5.4582C19.2709 5.78482 18.525 6.2754 17.9 6.89999L16 8.81249L14.3625 7.16249C11.8625 4.67499 7.77499 4.31249 5.16249 6.66249C4.50413 7.25185 3.97284 7.96925 3.60109 8.77086C3.22935 9.57248 3.02494 10.4415 3.00038 11.3248C2.97581 12.208 3.13159 13.087 3.4582 13.9081C3.78482 14.7291 4.2754 15.4749 4.89999 16.1L15.2875 26.4875C15.4771 26.6753 15.7331 26.7806 16 26.7806C16.2668 26.7806 16.5229 26.6753 16.7125 26.4875V26.4875Z" stroke="#59372B" stroke-width="2" stroke-linecap="round" stroke-linejoin="round"/>
</g>
</svg>
