<svg width="18" height="18" viewBox="0 0 18 18" fill="none" xmlns="http://www.w3.org/2000/svg">
<g id="Lightbulb">
<path id="Vector" d="M6.1875 16.3125H11.8125" stroke="#FCFCFC" stroke-width="1.25" stroke-linecap="round" stroke-linejoin="round"/>
<path id="Vector_2" d="M5.53359 11.7422C4.86393 11.2215 4.32156 10.5552 3.94757 9.79382C3.57358 9.03244 3.37778 8.19592 3.375 7.34765C3.36094 4.29609 5.81484 1.75781 8.86641 1.68749C10.0474 1.6595 11.2073 2.00404 12.1815 2.67227C13.1557 3.34049 13.8947 4.29847 14.2939 5.41034C14.6931 6.52221 14.732 7.73153 14.4053 8.86679C14.0785 10.002 13.4026 11.0056 12.4734 11.7351C12.2682 11.8938 12.1019 12.0973 11.9874 12.3301C11.8728 12.5628 11.813 12.8187 11.8125 13.0781V13.5C11.8125 13.6492 11.7532 13.7923 11.6477 13.8977C11.5423 14.0032 11.3992 14.0625 11.25 14.0625H6.75C6.60081 14.0625 6.45774 14.0032 6.35225 13.8977C6.24676 13.7923 6.1875 13.6492 6.1875 13.5V13.0781C6.18574 12.8206 6.12605 12.5669 6.01285 12.3356C5.89965 12.1043 5.73585 11.9015 5.53359 11.7422V11.7422Z" stroke="#FCFCFC" stroke-width="1.25" stroke-linecap="round" stroke-linejoin="round"/>
<path id="Vector_3" d="M9.56953 3.99374C10.257 4.11029 10.8914 4.43735 11.3851 4.92979C11.8788 5.42223 12.2075 6.05577 12.3258 6.74296" stroke="#FCFCFC" stroke-width="1.25" stroke-linecap="round" stroke-linejoin="round"/>
</g>
</svg>
